<svg id="Group_40" data-name="Group 40" xmlns="http://www.w3.org/2000/svg" width="68" height="64" viewBox="0 0 68 64">
  <g id="Path_18" data-name="Path 18" fill="#fff">
    <path d="M 34 63.5 C 29.47364044189453 63.5 25.08317947387695 62.66585922241211 20.95059013366699 61.0207405090332 C 16.96058082580566 59.43238067626953 13.37755966186523 57.15885162353516 10.30105018615723 54.26332092285156 C 7.22668981552124 51.36980056762695 4.813310146331787 48.00112915039062 3.127949953079224 44.25088882446289 C 1.384170055389404 40.37063980102539 0.5 36.24885177612305 0.5 32 C 0.5 27.75115013122559 1.384170055389404 23.62936019897461 3.127949953079224 19.74910926818848 C 4.813310146331787 15.99886989593506 7.22668981552124 12.63020038604736 10.30105018615723 9.736680030822754 C 13.37755966186523 6.841149806976318 16.96058082580566 4.567619800567627 20.95059013366699 2.979259967803955 C 25.08317947387695 1.334139943122864 29.47364044189453 0.5 34 0.5 C 38.52635955810547 0.5 42.91682052612305 1.334139943122864 47.04941177368164 2.979259967803955 C 51.03942108154297 4.567619800567627 54.62244033813477 6.841149806976318 57.69895172119141 9.736680030822754 C 60.77331161499023 12.63020038604736 63.18669128417969 15.99886989593506 64.87204742431641 19.74910926818848 C 66.61582946777344 23.62936019897461 67.5 27.75115013122559 67.5 32 C 67.5 36.24885177612305 66.61582946777344 40.37063980102539 64.87204742431641 44.25088882446289 C 63.18669128417969 48.00112915039062 60.77331161499023 51.36980056762695 57.69895172119141 54.26332092285156 C 54.62244033813477 57.15885162353516 51.03942108154297 59.43238067626953 47.04941177368164 61.0207405090332 C 42.91682052612305 62.66585922241211 38.52635955810547 63.5 34 63.5 Z" stroke="none"/>
    <path d="M 34 1 C 29.53725051879883 1 25.20901107788086 1.822219848632812 21.13552093505859 3.443809509277344 C 17.20418930053711 5.008808135986328 13.67425155639648 7.248538970947266 10.64373016357422 10.10078048706055 C 7.617511749267578 12.94900131225586 5.242279052734375 16.26411819458008 3.584022521972656 19.95407104492188 C 1.869392395019531 23.76943969726562 1 27.82228088378906 1 32 C 1 36.17771911621094 1.869392395019531 40.23056030273438 3.584022521972656 44.04592895507812 C 5.242279052734375 47.73587799072266 7.617511749267578 51.05099868774414 10.64373016357422 53.89921951293945 C 13.67425155639648 56.75146102905273 17.20418930053711 58.99118804931641 21.13552093505859 60.55619049072266 C 25.20901107788086 62.17778015136719 29.53725051879883 63 34 63 C 38.46274948120117 63 42.79099273681641 62.17778015136719 46.86447906494141 60.55619049072266 C 50.79581069946289 58.99118804931641 54.32575225830078 56.75146102905273 57.35626983642578 53.89921951293945 C 60.38249206542969 51.05099868774414 62.75772094726562 47.73587799072266 64.41597747802734 44.04592895507812 C 66.13060760498047 40.23056030273438 67 36.17771911621094 67 32 C 67 27.82228088378906 66.13060760498047 23.76943969726562 64.41597747802734 19.95407104492188 C 62.75772094726562 16.26411819458008 60.38249206542969 12.94900131225586 57.35626983642578 10.10078048706055 C 54.32575225830078 7.248538970947266 50.79581069946289 5.008808135986328 46.86447906494141 3.443809509277344 C 42.79099273681641 1.822219848632812 38.46274948120117 1 34 1 M 34 0 C 52.77767944335938 0 68 14.32688903808594 68 32 C 68 49.67311096191406 52.77767944335938 64 34 64 C 15.22232055664062 64 0 49.67311096191406 0 32 C 0 14.32688903808594 15.22232055664062 0 34 0 Z" stroke="none" fill="#707070"/>
  </g>
  <path id="Icon_metro-cross" data-name="Icon metro-cross" d="M33.138,26.711h0l-9.358-9.358,9.358-9.358h0a.966.966,0,0,0,0-1.363L28.717,2.21a.967.967,0,0,0-1.363,0h0L18,11.568,8.637,2.21h0a.966.966,0,0,0-1.363,0L2.852,6.631a.966.966,0,0,0,0,1.363h0l9.358,9.358L2.852,26.711h0a.966.966,0,0,0,0,1.363l4.421,4.421a.966.966,0,0,0,1.363,0h0L18,23.136l9.358,9.358h0a.966.966,0,0,0,1.363,0l4.421-4.421a.966.966,0,0,0,0-1.363Z" transform="translate(16.387 14.648)" fill="#6b2ad5"/>
  <g id="Group_39" data-name="Group 39">
    <g id="Ellipse_1" data-name="Ellipse 1" fill="#6b2ad5" stroke="#707070" stroke-width="1">
      <ellipse cx="34" cy="32" rx="34" ry="32" stroke="none"/>
      <ellipse cx="34" cy="32" rx="33.5" ry="31.5" fill="none"/>
    </g>
    <path id="Icon_map-search" data-name="Icon map-search" d="M23.453,19.581a11.847,11.847,0,1,0-10.142,5.765,11.73,11.73,0,0,0,6.137-1.734l8.072,8.13,4-4.034ZM13.31,20.794a7.393,7.393,0,1,1,7.343-7.389,7.378,7.378,0,0,1-7.343,7.389Z" transform="translate(17.518 15.681)" fill="#fff" stroke="#000" stroke-width="1"/>
  </g>
</svg>
